<mxfile host="app.diagrams.net" modified="2022-04-24T19:36:48.397Z" agent="5.0 (Windows NT 10.0; Win64; x64) AppleWebKit/537.36 (KHTML, like Gecko) Chrome/100.0.4896.127 Safari/537.36" etag="d8ICPrCYQTfi844Mjz5T" version="17.4.6" type="github">
  <diagram id="prtHgNgQTEPvFCAcTncT" name="Page-1">
    <mxGraphModel dx="1038" dy="539" grid="1" gridSize="10" guides="1" tooltips="1" connect="1" arrows="1" fold="1" page="1" pageScale="1" pageWidth="827" pageHeight="1169" math="0" shadow="0">
      <root>
        <mxCell id="0" />
        <mxCell id="1" parent="0" />
        <UserObject label="医疗信息平台" treeRoot="1" id="oJA0DEstWOMaebIxO12c-12">
          <mxCell style="whiteSpace=wrap;html=1;align=center;treeFolding=1;treeMoving=1;newEdgeStyle={&quot;edgeStyle&quot;:&quot;elbowEdgeStyle&quot;,&quot;startArrow&quot;:&quot;none&quot;,&quot;endArrow&quot;:&quot;none&quot;};" vertex="1" parent="1">
            <mxGeometry x="324" y="230" width="120" height="60" as="geometry" />
          </mxCell>
        </UserObject>
        <mxCell id="oJA0DEstWOMaebIxO12c-15" value="" style="edgeStyle=elbowEdgeStyle;elbow=vertical;startArrow=none;endArrow=none;rounded=0;" edge="1" target="oJA0DEstWOMaebIxO12c-16" source="oJA0DEstWOMaebIxO12c-12" parent="1">
          <mxGeometry relative="1" as="geometry">
            <mxPoint x="520" y="510" as="sourcePoint" />
          </mxGeometry>
        </mxCell>
        <mxCell id="oJA0DEstWOMaebIxO12c-16" value="前台" style="whiteSpace=wrap;html=1;align=center;verticalAlign=middle;treeFolding=1;treeMoving=1;newEdgeStyle={&quot;edgeStyle&quot;:&quot;elbowEdgeStyle&quot;,&quot;startArrow&quot;:&quot;none&quot;,&quot;endArrow&quot;:&quot;none&quot;};" vertex="1" parent="1">
          <mxGeometry x="120" y="340" width="140" height="50" as="geometry" />
        </mxCell>
        <mxCell id="oJA0DEstWOMaebIxO12c-17" value="" style="edgeStyle=elbowEdgeStyle;elbow=vertical;startArrow=none;endArrow=none;rounded=0;" edge="1" target="oJA0DEstWOMaebIxO12c-18" source="oJA0DEstWOMaebIxO12c-16" parent="1">
          <mxGeometry relative="1" as="geometry">
            <mxPoint x="520" y="510" as="sourcePoint" />
          </mxGeometry>
        </mxCell>
        <mxCell id="oJA0DEstWOMaebIxO12c-18" value="用户注册" style="whiteSpace=wrap;html=1;align=center;verticalAlign=middle;treeFolding=1;treeMoving=1;newEdgeStyle={&quot;edgeStyle&quot;:&quot;elbowEdgeStyle&quot;,&quot;startArrow&quot;:&quot;none&quot;,&quot;endArrow&quot;:&quot;none&quot;};" vertex="1" parent="1">
          <mxGeometry x="120" y="430" width="20" height="100" as="geometry" />
        </mxCell>
        <mxCell id="oJA0DEstWOMaebIxO12c-19" value="" style="edgeStyle=elbowEdgeStyle;elbow=vertical;startArrow=none;endArrow=none;rounded=0;" edge="1" target="oJA0DEstWOMaebIxO12c-20" source="oJA0DEstWOMaebIxO12c-16" parent="1">
          <mxGeometry relative="1" as="geometry">
            <mxPoint x="460" y="600" as="sourcePoint" />
          </mxGeometry>
        </mxCell>
        <mxCell id="oJA0DEstWOMaebIxO12c-20" value="用户登录" style="whiteSpace=wrap;html=1;align=center;verticalAlign=middle;treeFolding=1;treeMoving=1;newEdgeStyle={&quot;edgeStyle&quot;:&quot;elbowEdgeStyle&quot;,&quot;startArrow&quot;:&quot;none&quot;,&quot;endArrow&quot;:&quot;none&quot;};" vertex="1" parent="1">
          <mxGeometry x="150" y="430" width="20" height="100" as="geometry" />
        </mxCell>
        <mxCell id="oJA0DEstWOMaebIxO12c-25" value="" style="edgeStyle=elbowEdgeStyle;elbow=vertical;startArrow=none;endArrow=none;rounded=0;" edge="1" target="oJA0DEstWOMaebIxO12c-26" source="oJA0DEstWOMaebIxO12c-16" parent="1">
          <mxGeometry relative="1" as="geometry">
            <mxPoint x="520" y="510" as="sourcePoint" />
          </mxGeometry>
        </mxCell>
        <mxCell id="oJA0DEstWOMaebIxO12c-26" value="医生" style="whiteSpace=wrap;html=1;align=center;verticalAlign=middle;treeFolding=1;treeMoving=1;newEdgeStyle={&quot;edgeStyle&quot;:&quot;elbowEdgeStyle&quot;,&quot;startArrow&quot;:&quot;none&quot;,&quot;endArrow&quot;:&quot;none&quot;};" vertex="1" parent="1">
          <mxGeometry x="180" y="430" width="80" height="30" as="geometry" />
        </mxCell>
        <mxCell id="oJA0DEstWOMaebIxO12c-27" value="" style="edgeStyle=elbowEdgeStyle;elbow=vertical;startArrow=none;endArrow=none;rounded=0;" edge="1" target="oJA0DEstWOMaebIxO12c-28" source="oJA0DEstWOMaebIxO12c-16" parent="1">
          <mxGeometry relative="1" as="geometry">
            <mxPoint x="460" y="600" as="sourcePoint" />
          </mxGeometry>
        </mxCell>
        <mxCell id="oJA0DEstWOMaebIxO12c-28" value="药剂师" style="whiteSpace=wrap;html=1;align=center;verticalAlign=middle;treeFolding=1;treeMoving=1;newEdgeStyle={&quot;edgeStyle&quot;:&quot;elbowEdgeStyle&quot;,&quot;startArrow&quot;:&quot;none&quot;,&quot;endArrow&quot;:&quot;none&quot;};" vertex="1" parent="1">
          <mxGeometry x="290" y="430" width="80" height="30" as="geometry" />
        </mxCell>
        <mxCell id="oJA0DEstWOMaebIxO12c-29" value="" style="edgeStyle=elbowEdgeStyle;elbow=vertical;startArrow=none;endArrow=none;rounded=0;" edge="1" target="oJA0DEstWOMaebIxO12c-30" source="oJA0DEstWOMaebIxO12c-16" parent="1">
          <mxGeometry relative="1" as="geometry">
            <mxPoint x="460" y="600" as="sourcePoint" />
          </mxGeometry>
        </mxCell>
        <mxCell id="oJA0DEstWOMaebIxO12c-30" value="患者" style="whiteSpace=wrap;html=1;align=center;verticalAlign=middle;treeFolding=1;treeMoving=1;newEdgeStyle={&quot;edgeStyle&quot;:&quot;elbowEdgeStyle&quot;,&quot;startArrow&quot;:&quot;none&quot;,&quot;endArrow&quot;:&quot;none&quot;};" vertex="1" parent="1">
          <mxGeometry x="430" y="430" width="80" height="30" as="geometry" />
        </mxCell>
        <mxCell id="oJA0DEstWOMaebIxO12c-33" value="" style="edgeStyle=elbowEdgeStyle;elbow=vertical;startArrow=none;endArrow=none;rounded=0;" edge="1" target="oJA0DEstWOMaebIxO12c-34" source="oJA0DEstWOMaebIxO12c-26" parent="1">
          <mxGeometry relative="1" as="geometry">
            <mxPoint x="410" y="590" as="sourcePoint" />
          </mxGeometry>
        </mxCell>
        <mxCell id="oJA0DEstWOMaebIxO12c-34" value="开处方" style="whiteSpace=wrap;html=1;align=center;verticalAlign=middle;treeFolding=1;treeMoving=1;newEdgeStyle={&quot;edgeStyle&quot;:&quot;elbowEdgeStyle&quot;,&quot;startArrow&quot;:&quot;none&quot;,&quot;endArrow&quot;:&quot;none&quot;};" vertex="1" parent="1">
          <mxGeometry x="180" y="500" width="20" height="90" as="geometry" />
        </mxCell>
        <mxCell id="oJA0DEstWOMaebIxO12c-35" value="" style="edgeStyle=elbowEdgeStyle;elbow=vertical;startArrow=none;endArrow=none;rounded=0;" edge="1" target="oJA0DEstWOMaebIxO12c-36" source="oJA0DEstWOMaebIxO12c-26" parent="1">
          <mxGeometry relative="1" as="geometry">
            <mxPoint x="410" y="660" as="sourcePoint" />
          </mxGeometry>
        </mxCell>
        <mxCell id="oJA0DEstWOMaebIxO12c-36" value="查看病历" style="whiteSpace=wrap;html=1;align=center;verticalAlign=middle;treeFolding=1;treeMoving=1;newEdgeStyle={&quot;edgeStyle&quot;:&quot;elbowEdgeStyle&quot;,&quot;startArrow&quot;:&quot;none&quot;,&quot;endArrow&quot;:&quot;none&quot;};" vertex="1" parent="1">
          <mxGeometry x="210" y="500" width="20" height="90" as="geometry" />
        </mxCell>
        <mxCell id="oJA0DEstWOMaebIxO12c-37" value="" style="edgeStyle=elbowEdgeStyle;elbow=vertical;startArrow=none;endArrow=none;rounded=0;" edge="1" target="oJA0DEstWOMaebIxO12c-38" source="oJA0DEstWOMaebIxO12c-26" parent="1">
          <mxGeometry relative="1" as="geometry">
            <mxPoint x="410" y="660" as="sourcePoint" />
          </mxGeometry>
        </mxCell>
        <mxCell id="oJA0DEstWOMaebIxO12c-38" value="录入病情" style="whiteSpace=wrap;html=1;align=center;verticalAlign=middle;treeFolding=1;treeMoving=1;newEdgeStyle={&quot;edgeStyle&quot;:&quot;elbowEdgeStyle&quot;,&quot;startArrow&quot;:&quot;none&quot;,&quot;endArrow&quot;:&quot;none&quot;};" vertex="1" parent="1">
          <mxGeometry x="240" y="500" width="20" height="90" as="geometry" />
        </mxCell>
        <mxCell id="oJA0DEstWOMaebIxO12c-43" value="" style="edgeStyle=elbowEdgeStyle;elbow=vertical;startArrow=none;endArrow=none;rounded=0;" edge="1" target="oJA0DEstWOMaebIxO12c-44" source="oJA0DEstWOMaebIxO12c-28" parent="1">
          <mxGeometry relative="1" as="geometry">
            <mxPoint x="400" y="590" as="sourcePoint" />
          </mxGeometry>
        </mxCell>
        <mxCell id="oJA0DEstWOMaebIxO12c-44" value="接收处方" style="whiteSpace=wrap;html=1;align=center;verticalAlign=middle;treeFolding=1;treeMoving=1;newEdgeStyle={&quot;edgeStyle&quot;:&quot;elbowEdgeStyle&quot;,&quot;startArrow&quot;:&quot;none&quot;,&quot;endArrow&quot;:&quot;none&quot;};" vertex="1" parent="1">
          <mxGeometry x="290" y="500" width="20" height="90" as="geometry" />
        </mxCell>
        <mxCell id="oJA0DEstWOMaebIxO12c-45" value="" style="edgeStyle=elbowEdgeStyle;elbow=vertical;startArrow=none;endArrow=none;rounded=0;" edge="1" target="oJA0DEstWOMaebIxO12c-46" source="oJA0DEstWOMaebIxO12c-28" parent="1">
          <mxGeometry relative="1" as="geometry">
            <mxPoint x="520" y="660" as="sourcePoint" />
          </mxGeometry>
        </mxCell>
        <mxCell id="oJA0DEstWOMaebIxO12c-46" value="确认患者信息" style="whiteSpace=wrap;html=1;align=center;verticalAlign=middle;treeFolding=1;treeMoving=1;newEdgeStyle={&quot;edgeStyle&quot;:&quot;elbowEdgeStyle&quot;,&quot;startArrow&quot;:&quot;none&quot;,&quot;endArrow&quot;:&quot;none&quot;};" vertex="1" collapsed="1" parent="1">
          <mxGeometry x="320" y="500" width="20" height="90" as="geometry" />
        </mxCell>
        <mxCell id="oJA0DEstWOMaebIxO12c-47" value="" style="edgeStyle=elbowEdgeStyle;elbow=vertical;startArrow=none;endArrow=none;rounded=0;" edge="1" target="oJA0DEstWOMaebIxO12c-48" source="oJA0DEstWOMaebIxO12c-28" parent="1">
          <mxGeometry relative="1" as="geometry">
            <mxPoint x="520" y="660" as="sourcePoint" />
          </mxGeometry>
        </mxCell>
        <mxCell id="oJA0DEstWOMaebIxO12c-48" value="查看药品库存" style="whiteSpace=wrap;html=1;align=center;verticalAlign=middle;treeFolding=1;treeMoving=1;newEdgeStyle={&quot;edgeStyle&quot;:&quot;elbowEdgeStyle&quot;,&quot;startArrow&quot;:&quot;none&quot;,&quot;endArrow&quot;:&quot;none&quot;};" vertex="1" collapsed="1" parent="1">
          <mxGeometry x="350" y="500" width="20" height="90" as="geometry" />
        </mxCell>
        <mxCell id="oJA0DEstWOMaebIxO12c-49" value="" style="edgeStyle=elbowEdgeStyle;elbow=vertical;startArrow=none;endArrow=none;rounded=0;" edge="1" target="oJA0DEstWOMaebIxO12c-50" source="oJA0DEstWOMaebIxO12c-28" parent="1">
          <mxGeometry relative="1" as="geometry">
            <mxPoint x="520" y="660" as="sourcePoint" />
          </mxGeometry>
        </mxCell>
        <mxCell id="oJA0DEstWOMaebIxO12c-50" value="检查药物冲突" style="whiteSpace=wrap;html=1;align=center;verticalAlign=middle;treeFolding=1;treeMoving=1;newEdgeStyle={&quot;edgeStyle&quot;:&quot;elbowEdgeStyle&quot;,&quot;startArrow&quot;:&quot;none&quot;,&quot;endArrow&quot;:&quot;none&quot;};" vertex="1" collapsed="1" parent="1">
          <mxGeometry x="380" y="500" width="20" height="90" as="geometry" />
        </mxCell>
        <mxCell id="oJA0DEstWOMaebIxO12c-51" value="" style="edgeStyle=elbowEdgeStyle;elbow=vertical;startArrow=none;endArrow=none;rounded=0;" edge="1" target="oJA0DEstWOMaebIxO12c-52" source="oJA0DEstWOMaebIxO12c-30" parent="1">
          <mxGeometry relative="1" as="geometry">
            <mxPoint x="380" y="590" as="sourcePoint" />
          </mxGeometry>
        </mxCell>
        <mxCell id="oJA0DEstWOMaebIxO12c-52" value="查询病历" style="whiteSpace=wrap;html=1;align=center;verticalAlign=middle;treeFolding=1;treeMoving=1;newEdgeStyle={&quot;edgeStyle&quot;:&quot;elbowEdgeStyle&quot;,&quot;startArrow&quot;:&quot;none&quot;,&quot;endArrow&quot;:&quot;none&quot;};" vertex="1" parent="1">
          <mxGeometry x="420" y="500" width="20" height="90" as="geometry" />
        </mxCell>
        <mxCell id="oJA0DEstWOMaebIxO12c-53" value="" style="edgeStyle=elbowEdgeStyle;elbow=vertical;startArrow=none;endArrow=none;rounded=0;" edge="1" target="oJA0DEstWOMaebIxO12c-54" source="oJA0DEstWOMaebIxO12c-30" parent="1">
          <mxGeometry relative="1" as="geometry">
            <mxPoint x="660" y="660" as="sourcePoint" />
          </mxGeometry>
        </mxCell>
        <mxCell id="oJA0DEstWOMaebIxO12c-54" value="挂号" style="whiteSpace=wrap;html=1;align=center;verticalAlign=middle;treeFolding=1;treeMoving=1;newEdgeStyle={&quot;edgeStyle&quot;:&quot;elbowEdgeStyle&quot;,&quot;startArrow&quot;:&quot;none&quot;,&quot;endArrow&quot;:&quot;none&quot;};" vertex="1" parent="1">
          <mxGeometry x="450" y="500" width="20" height="90" as="geometry" />
        </mxCell>
        <mxCell id="oJA0DEstWOMaebIxO12c-55" value="" style="edgeStyle=elbowEdgeStyle;elbow=vertical;startArrow=none;endArrow=none;rounded=0;" edge="1" target="oJA0DEstWOMaebIxO12c-56" source="oJA0DEstWOMaebIxO12c-30" parent="1">
          <mxGeometry relative="1" as="geometry">
            <mxPoint x="660" y="660" as="sourcePoint" />
          </mxGeometry>
        </mxCell>
        <mxCell id="oJA0DEstWOMaebIxO12c-56" value="付费" style="whiteSpace=wrap;html=1;align=center;verticalAlign=middle;treeFolding=1;treeMoving=1;newEdgeStyle={&quot;edgeStyle&quot;:&quot;elbowEdgeStyle&quot;,&quot;startArrow&quot;:&quot;none&quot;,&quot;endArrow&quot;:&quot;none&quot;};" vertex="1" parent="1">
          <mxGeometry x="480" y="500" width="20" height="90" as="geometry" />
        </mxCell>
        <mxCell id="oJA0DEstWOMaebIxO12c-57" value="" style="edgeStyle=elbowEdgeStyle;elbow=vertical;startArrow=none;endArrow=none;rounded=0;" edge="1" target="oJA0DEstWOMaebIxO12c-58" source="oJA0DEstWOMaebIxO12c-30" parent="1">
          <mxGeometry relative="1" as="geometry">
            <mxPoint x="660" y="660" as="sourcePoint" />
          </mxGeometry>
        </mxCell>
        <mxCell id="oJA0DEstWOMaebIxO12c-58" value="查看处方" style="whiteSpace=wrap;html=1;align=center;verticalAlign=middle;treeFolding=1;treeMoving=1;newEdgeStyle={&quot;edgeStyle&quot;:&quot;elbowEdgeStyle&quot;,&quot;startArrow&quot;:&quot;none&quot;,&quot;endArrow&quot;:&quot;none&quot;};" vertex="1" parent="1">
          <mxGeometry x="510" y="500" width="20" height="90" as="geometry" />
        </mxCell>
        <mxCell id="oJA0DEstWOMaebIxO12c-59" value="" style="edgeStyle=elbowEdgeStyle;elbow=vertical;startArrow=none;endArrow=none;rounded=0;" edge="1" target="oJA0DEstWOMaebIxO12c-60" source="oJA0DEstWOMaebIxO12c-30" parent="1">
          <mxGeometry relative="1" as="geometry">
            <mxPoint x="660" y="660" as="sourcePoint" />
          </mxGeometry>
        </mxCell>
        <mxCell id="oJA0DEstWOMaebIxO12c-60" value="查询个人信息" style="whiteSpace=wrap;html=1;align=center;verticalAlign=middle;treeFolding=1;treeMoving=1;newEdgeStyle={&quot;edgeStyle&quot;:&quot;elbowEdgeStyle&quot;,&quot;startArrow&quot;:&quot;none&quot;,&quot;endArrow&quot;:&quot;none&quot;};" vertex="1" parent="1">
          <mxGeometry x="540" y="500" width="20" height="90" as="geometry" />
        </mxCell>
        <mxCell id="oJA0DEstWOMaebIxO12c-62" value="医生管理" style="whiteSpace=wrap;html=1;align=center;verticalAlign=middle;treeFolding=1;treeMoving=1;newEdgeStyle={&quot;edgeStyle&quot;:&quot;elbowEdgeStyle&quot;,&quot;startArrow&quot;:&quot;none&quot;,&quot;endArrow&quot;:&quot;none&quot;};" vertex="1" parent="1">
          <mxGeometry x="590" y="480" width="20" height="80" as="geometry" />
        </mxCell>
        <mxCell id="oJA0DEstWOMaebIxO12c-64" value="药剂师管理" style="whiteSpace=wrap;html=1;align=center;verticalAlign=middle;treeFolding=1;treeMoving=1;newEdgeStyle={&quot;edgeStyle&quot;:&quot;elbowEdgeStyle&quot;,&quot;startArrow&quot;:&quot;none&quot;,&quot;endArrow&quot;:&quot;none&quot;};" vertex="1" parent="1">
          <mxGeometry x="620" y="480" width="20" height="80" as="geometry" />
        </mxCell>
        <mxCell id="oJA0DEstWOMaebIxO12c-66" value="患者管理" style="whiteSpace=wrap;html=1;align=center;verticalAlign=middle;treeFolding=1;treeMoving=1;newEdgeStyle={&quot;edgeStyle&quot;:&quot;elbowEdgeStyle&quot;,&quot;startArrow&quot;:&quot;none&quot;,&quot;endArrow&quot;:&quot;none&quot;};" vertex="1" parent="1">
          <mxGeometry x="650" y="480" width="20" height="80" as="geometry" />
        </mxCell>
        <mxCell id="oJA0DEstWOMaebIxO12c-68" value="药品管理" style="whiteSpace=wrap;html=1;align=center;verticalAlign=middle;treeFolding=1;treeMoving=1;newEdgeStyle={&quot;edgeStyle&quot;:&quot;elbowEdgeStyle&quot;,&quot;startArrow&quot;:&quot;none&quot;,&quot;endArrow&quot;:&quot;none&quot;};" vertex="1" parent="1">
          <mxGeometry x="680" y="480" width="20" height="80" as="geometry" />
        </mxCell>
        <mxCell id="oJA0DEstWOMaebIxO12c-70" value="管理员登录" style="whiteSpace=wrap;html=1;align=center;verticalAlign=middle;treeFolding=1;treeMoving=1;newEdgeStyle={&quot;edgeStyle&quot;:&quot;elbowEdgeStyle&quot;,&quot;startArrow&quot;:&quot;none&quot;,&quot;endArrow&quot;:&quot;none&quot;};" vertex="1" parent="1">
          <mxGeometry x="710" y="480" width="20" height="80" as="geometry" />
        </mxCell>
        <mxCell id="oJA0DEstWOMaebIxO12c-14" value="后台" style="whiteSpace=wrap;html=1;align=center;verticalAlign=middle;treeFolding=1;treeMoving=1;newEdgeStyle={&quot;edgeStyle&quot;:&quot;elbowEdgeStyle&quot;,&quot;startArrow&quot;:&quot;none&quot;,&quot;endArrow&quot;:&quot;none&quot;};" vertex="1" parent="1">
          <mxGeometry x="600" y="340" width="140" height="50" as="geometry" />
        </mxCell>
        <mxCell id="oJA0DEstWOMaebIxO12c-11" value="" style="edgeStyle=elbowEdgeStyle;elbow=vertical;startArrow=none;endArrow=none;rounded=0;" edge="1" parent="1" source="oJA0DEstWOMaebIxO12c-12" target="oJA0DEstWOMaebIxO12c-14">
          <mxGeometry relative="1" as="geometry" />
        </mxCell>
        <mxCell id="oJA0DEstWOMaebIxO12c-61" value="" style="edgeStyle=elbowEdgeStyle;elbow=vertical;startArrow=none;endArrow=none;rounded=0;" edge="1" target="oJA0DEstWOMaebIxO12c-62" source="oJA0DEstWOMaebIxO12c-14" parent="1">
          <mxGeometry relative="1" as="geometry">
            <mxPoint x="474" y="500" as="sourcePoint" />
          </mxGeometry>
        </mxCell>
        <mxCell id="oJA0DEstWOMaebIxO12c-63" value="" style="edgeStyle=elbowEdgeStyle;elbow=vertical;startArrow=none;endArrow=none;rounded=0;" edge="1" target="oJA0DEstWOMaebIxO12c-64" source="oJA0DEstWOMaebIxO12c-14" parent="1">
          <mxGeometry relative="1" as="geometry">
            <mxPoint x="780" y="590" as="sourcePoint" />
          </mxGeometry>
        </mxCell>
        <mxCell id="oJA0DEstWOMaebIxO12c-65" value="" style="edgeStyle=elbowEdgeStyle;elbow=vertical;startArrow=none;endArrow=none;rounded=0;" edge="1" target="oJA0DEstWOMaebIxO12c-66" source="oJA0DEstWOMaebIxO12c-14" parent="1">
          <mxGeometry relative="1" as="geometry">
            <mxPoint x="780" y="590" as="sourcePoint" />
          </mxGeometry>
        </mxCell>
        <mxCell id="oJA0DEstWOMaebIxO12c-67" value="" style="edgeStyle=elbowEdgeStyle;elbow=vertical;startArrow=none;endArrow=none;rounded=0;" edge="1" target="oJA0DEstWOMaebIxO12c-68" source="oJA0DEstWOMaebIxO12c-14" parent="1">
          <mxGeometry relative="1" as="geometry">
            <mxPoint x="780" y="590" as="sourcePoint" />
          </mxGeometry>
        </mxCell>
        <mxCell id="oJA0DEstWOMaebIxO12c-69" value="" style="edgeStyle=elbowEdgeStyle;elbow=vertical;startArrow=none;endArrow=none;rounded=0;" edge="1" target="oJA0DEstWOMaebIxO12c-70" source="oJA0DEstWOMaebIxO12c-14" parent="1">
          <mxGeometry relative="1" as="geometry">
            <mxPoint x="780" y="590" as="sourcePoint" />
          </mxGeometry>
        </mxCell>
      </root>
    </mxGraphModel>
  </diagram>
</mxfile>
